<svg xmlns="http://www.w3.org/2000/svg" viewBox="0 0 1200 900" width="1200" height="900">
  <defs>
    <linearGradient id="bg" x1="0" y1="0" x2="1" y2="1">
      <stop offset="0%" stop-color="#e8f5e9"/>
      <stop offset="100%" stop-color="#c8e6c9"/>
    </linearGradient>
    <linearGradient id="land" x1="0" y1="0" x2="0" y2="1">
      <stop offset="0%" stop-color="#2e7d32"/>
      <stop offset="100%" stop-color="#1b5e20"/>
    </linearGradient>
    <filter id="shadow" x="-20%" y="-20%" width="140%" height="140%">
      <feDropShadow dx="0" dy="8" stdDeviation="10" flood-color="#0b3d0b" flood-opacity="0.28"/>
    </filter>
  </defs>

  <rect width="100%" height="100%" fill="url(#bg)"/>
  <path d="M 975.85,141.71 L 973.37,189.71 L 989.82,195.27 L 976.62,209.85 L 960.85,220.75 L 945.16,242.16 L 936.52,261.25 L 934.21,294.20 L 924.70,309.88 L 924.36,340.83 L 912.55,352.28 L 911.03,376.70 L 905.39,379.87 L 901.59,402.33 L 911.92,420.99 L 914.53,470.50 L 921.92,508.27 L 917.81,529.62 L 926.02,553.43 L 949.83,576.41 L 972.00,628.14 L 955.83,623.96 L 900.69,630.89 L 889.69,635.80 L 877.99,662.00 L 887.17,680.11 L 879.88,728.71 L 874.80,769.92 L 885.89,777.22 L 914.59,793.20 L 925.86,785.73 L 929.29,830.00 L 897.87,829.66 L 881.01,807.07 L 865.89,789.57 L 834.43,783.84 L 825.22,762.33 L 800.12,775.29 L 767.25,769.56 L 753.53,750.92 L 727.46,747.14 L 708.22,748.13 L 705.87,735.37 L 691.71,734.33 L 673.01,731.91 L 647.58,738.06 L 629.74,737.05 L 619.58,740.82 L 621.78,691.97 L 608.08,676.73 L 605.07,651.49 L 611.12,626.74 L 602.80,610.90 L 602.05,585.07 L 552.24,585.43 L 555.81,570.64 L 534.87,570.79 L 532.65,577.91 L 507.19,579.51 L 496.89,603.43 L 490.74,613.70 L 468.06,607.90 L 454.51,613.68 L 427.37,617.00 L 411.65,595.53 L 402.21,582.26 L 390.43,557.64 L 380.30,527.05 L 259.16,526.51 L 244.77,531.44 L 232.87,530.67 L 215.93,536.19 L 210.18,523.46 L 220.62,519.12 L 221.91,501.22 L 228.62,490.67 L 243.56,482.04 L 254.35,486.22 L 268.39,470.51 L 290.75,470.91 L 293.38,482.53 L 308.71,489.81 L 332.87,464.08 L 356.78,444.03 L 367.16,430.89 L 365.78,397.12 L 383.61,357.24 L 402.42,336.09 L 429.45,316.31 L 434.17,303.21 L 435.19,288.15 L 441.88,273.91 L 439.73,250.64 L 444.85,214.27 L 452.87,188.65 L 465.17,166.70 L 467.60,141.91 L 471.29,113.28 L 487.28,92.44 L 509.26,79.22 L 543.04,93.17 L 569.18,108.31 L 599.22,112.35 L 629.84,120.37 L 642.11,95.58 L 647.75,92.41 L 666.46,96.54 L 712.16,76.05 L 728.36,84.73 L 741.65,83.50 L 747.81,73.52 L 763.07,70.00 L 793.95,74.32 L 820.28,75.26 L 833.83,70.91 L 858.70,104.80 L 877.13,109.78 L 888.12,102.88 L 907.10,105.58 L 929.96,96.90 L 939.71,114.43 L 975.85,141.71 Z" fill="url(#land)" stroke="#0d3b12" stroke-width="3" filter="url(#shadow)"/>

  <text x="70" y="105" font-size="56" font-family="Georgia, 'Times New Roman', serif" fill="#123d1a" font-weight="700">
    Democratic Republic of the Congo
  </text>
  <text x="70" y="145" font-size="26" font-family="Georgia, 'Times New Roman', serif" fill="#24572c">
    Country Outline Map
  </text>
</svg>
